{
    "asset" : {
        "generator" : "Khronos glTF Blender I/O v3.4.50",
        "version" : "2.0"
    },
    "scene" : 0,
    "scenes" : [
        {
            "name" : "Scene",
            "nodes" : [
                1
            ]
        }
    ],
    "nodes" : [
        {
            "mesh" : 0,
            "name" : "picnic_table",
            "translation" : [
                -3.814697265625e-06,
                26.163379669189453,
                0
            ]
        },
        {
            "children" : [
                0
            ],
            "name" : "picnic_table_grp"
        }
    ],
    "materials" : [
        {
            "doubleSided" : true,
            "name" : "picnic_table_mat.001",
            "normalTexture" : {
                "index" : 0
            },
            "pbrMetallicRoughness" : {
                "baseColorTexture" : {
                    "index" : 1
                },
                "metallicRoughnessTexture" : {
                    "index" : 2
                }
            }
        }
    ],
    "meshes" : [
        {
            "name" : "Mesh",
            "primitives" : [
                {
                    "attributes" : {
                        "POSITION" : 0,
                        "TEXCOORD_0" : 1,
                        "TEXCOORD_1" : 2,
                        "NORMAL" : 3
                    },
                    "indices" : 4,
                    "material" : 0
                }
            ]
        }
    ],
    "textures" : [
        {
            "sampler" : 0,
            "source" : 0
        },
        {
            "sampler" : 0,
            "source" : 1
        },
        {
            "sampler" : 0,
            "source" : 2
        }
    ],
    "images" : [
        {
            "mimeType" : "image/png",
            "name" : "picnic_table_Normal",
            "uri" : "picnic_table_Normal.png"
        },
        {
            "mimeType" : "image/png",
            "name" : "picnic_table_mat_bcolor",
            "uri" : "picnic_table_mat_bcolor.png"
        },
        {
            "mimeType" : "image/png",
            "name" : "picnic_table_Metallic-picnic_table_Roughness",
            "uri" : "picnic_table_Metallic-picnic_table_Roughness.png"
        }
    ],
    "accessors" : [
        {
            "bufferView" : 0,
            "componentType" : 5126,
            "count" : 2664,
            "max" : [
                75.87663269042969,
                26.163347244262695,
                56.562889099121094
            ],
            "min" : [
                -75.87662506103516,
                -26.163379669189453,
                -56.562889099121094
            ],
            "type" : "VEC3"
        },
        {
            "bufferView" : 1,
            "componentType" : 5126,
            "count" : 2664,
            "type" : "VEC2"
        },
        {
            "bufferView" : 2,
            "componentType" : 5126,
            "count" : 2664,
            "type" : "VEC2"
        },
        {
            "bufferView" : 3,
            "componentType" : 5126,
            "count" : 2664,
            "type" : "VEC3"
        },
        {
            "bufferView" : 4,
            "componentType" : 5123,
            "count" : 2664,
            "type" : "SCALAR"
        }
    ],
    "bufferViews" : [
        {
            "buffer" : 0,
            "byteLength" : 31968,
            "byteOffset" : 0,
            "target" : 34962
        },
        {
            "buffer" : 0,
            "byteLength" : 21312,
            "byteOffset" : 31968,
            "target" : 34962
        },
        {
            "buffer" : 0,
            "byteLength" : 21312,
            "byteOffset" : 53280,
            "target" : 34962
        },
        {
            "buffer" : 0,
            "byteLength" : 31968,
            "byteOffset" : 74592,
            "target" : 34962
        },
        {
            "buffer" : 0,
            "byteLength" : 5328,
            "byteOffset" : 106560,
            "target" : 34963
        }
    ],
    "samplers" : [
        {
            "magFilter" : 9729,
            "minFilter" : 9987
        }
    ],
    "buffers" : [
        {
            "byteLength" : 111888,
            "uri" : "picnic_table.bin"
        }
    ]
}
